<svg id="visual" viewBox="0 0 1920 1080" width="1920" height="1080" xmlns="http://www.w3.org/2000/svg" xmlns:xlink="http://www.w3.org/1999/xlink" version="1.1"><rect width="1920" height="1080" fill="#001829"></rect><g><g transform="translate(293 923)"><path d="M0 -288.1L288.1 0L0 288.1L-288.1 0Z" fill="#297EA6"></path></g><g transform="translate(667 27)"><path d="M0 -249L249 0L0 249L-249 0Z" fill="#297EA6"></path></g><g transform="translate(887 1061)"><path d="M0 -274L274 0L0 274L-274 0Z" fill="#297EA6"></path></g><g transform="translate(1903 1074)"><path d="M0 -239L239 0L0 239L-239 0Z" fill="#297EA6"></path></g><g transform="translate(1502 423)"><path d="M0 -160L160 0L0 160L-160 0Z" fill="#297EA6"></path></g><g transform="translate(47 112)"><path d="M0 -191L191 0L0 191L-191 0Z" fill="#297EA6"></path></g></g></svg>